<?xml version="1.0" encoding="UTF-8"?>
<svg viewBox="0 0 744.09003 130" xmlns="http://www.w3.org/2000/svg">
 <defs>
  <linearGradient id="b" x1="209.44" x2="209.88" y1="213.5" y2="83.851" gradientUnits="userSpaceOnUse">
   <stop stop-color="#784421" offset="0"/>
   <stop stop-color="#784421" stop-opacity="0" offset="1"/>
  </linearGradient>
  <linearGradient id="a" x1="220.71" x2="221.42" y1="446.89" y2="443.79" gradientUnits="userSpaceOnUse">
   <stop stop-color="#28170b" offset="0"/>
   <stop stop-color="#28170b" stop-opacity="0" offset="1"/>
  </linearGradient>
 </defs>
 <path d="m14.432 18.468 718.99 2.932v11.652l-75.433 2.6188-52.251 5.2751 126.11 2.9319 3.1528 11.728h-20.493l-47.95 9.9239 66.191 2.8942-0.9015 55.667-715.84 3.9092-1.7077-19.606 40.523-10.812-42.461-12.52 2.0696-66.593z" fill="#ccc" fill-rule="evenodd"/>
 <path d="m13.165 12.393 719.94 2.9834v11.857l-75.533 2.6647-52.321 5.3676 126.28 2.9834 3.1569 11.933h-20.52l-48.014 10.098 66.279 2.945-0.90269 56.643-716.79 3.9778-1.7099-19.95 40.577-11.002-42.518-12.74 2.0723-67.761z" fill="#decd87" fill-rule="evenodd" stroke="#452e00" stroke-width=".76436"/>
 <path d="m12.717 11.799 719.94 2.9834v11.857l-75.533 2.6647-52.321 5.3676 126.28 2.9834 3.1569 11.933h-20.52l-48.014 10.098 66.279 2.945-0.90269 56.643-716.79 3.9778-1.7099-19.95 40.577-11.002-42.518-12.74 2.0723-67.761z" fill="url(#b)" fill-rule="evenodd"/>
 <path d="m12.857 23.321s257.13-4.1158 294.17 4.1159 59.68 27.782 122.45 16.463 156.4-19.55 178.01-19.55 125.38 0.63507 125.38 0.63507" fill="none" stroke="#806f49" stroke-width=".76436"/>
 <path d="m356.42 15.089s12.256 23.359 45.274 15.434c25.724-6.1737 87.462-15.434 94.664-15.434" fill="none" stroke="#806f49" stroke-width=".76436"/>
 <path d="m12.748 45.958c5.1448 1.0289 176.98-2.0579 205.79-2.0579s-13.376 9.2606-55.564 12.348-151.26-1.029-151.26-1.029" fill="none" stroke="#806f49" stroke-width=".76436"/>
 <path d="m11.281 77.856s152.72-2.0579 232.98-11.319 113.19-10.29 151.26-9.2606 126.56 17.492 185.21 5.1448 96.722-13.376 108.04-13.376 43.216 1.029 43.216 1.029" fill="none" stroke="#806f49" stroke-width=".76436"/>
 <path d="m51.409 92.261s118.77-10.29 151.7-10.29 135.82 18.521 195.5 10.29 126.56-17.492 172.87-18.521 159.49 15.434 159.49 15.434h1.029" fill="none" stroke="#806f49" stroke-width=".76436"/>
 <path d="m12.99 108.72s134.55 6.1738 176.74 1.029 122.45-10.29 156.4-9.2606 165.66-15.434 189.33-11.319 196.49 9.2606 196.49 9.2606" fill="none" stroke="#806f49" stroke-width=".76436"/>
 <path d="m731.75 105.64s-134.55-5.1448-171.6-7.2027-53.506 0-72.027 4.1159 29.84 7.2027 69.969 8.2316 173.89 3.0869 173.89 3.0869" fill="none" stroke="#806f49" stroke-width=".76436"/>
 <path d="m217.54 122.51s159.46-17.906 189.3-16.877-68.655 16.222-68.655 16.222" fill="none" stroke="#806f49" stroke-width=".76436"/>
 <path transform="matrix(4.596 0 0 5.0191 -323.07 -2164.5)" d="m223.37 444.77a2.4373 2.2939 0 1 1 -4.8745 0 2.4373 2.2939 0 1 1 4.8745 0z" fill="#784421"/>
 <path transform="matrix(4.596 0 0 5.0191 -323.08 -2164.5)" d="m223.37 444.77a2.4373 2.2939 0 1 1 -4.8745 0 2.4373 2.2939 0 1 1 4.8745 0z" fill="url(#a)"/>
 <path transform="matrix(4.596 0 0 5.0191 -962.3 -2165.7)" d="m223.37 444.77a2.4373 2.2939 0 1 1 -4.8745 0 2.4373 2.2939 0 1 1 4.8745 0z" fill="#784421"/>
 <path transform="matrix(4.596 0 0 5.0191 -962.3 -2165.7)" d="m223.37 444.77a2.4373 2.2939 0 1 1 -4.8745 0 2.4373 2.2939 0 1 1 4.8745 0z" fill="url(#a)"/>
</svg>
